<?xml version="1.0" encoding="UTF-8"?>
<!DOCTYPE svg PUBLIC "-//W3C//DTD SVG 1.1//EN" "http://www.w3.org/Graphics/SVG/1.1/DTD/svg11.dtd">
<!-- Creator: CorelDRAW 2021 (64 Bit) -->
<svg xmlns="http://www.w3.org/2000/svg" xml:space="preserve" width="44.921mm" height="11.59mm" version="1.1" style="shape-rendering:geometricPrecision; text-rendering:geometricPrecision; image-rendering:optimizeQuality; fill-rule:evenodd; clip-rule:evenodd"
viewBox="0 0 4492.1 1159"
 xmlns:xlink="http://www.w3.org/1999/xlink"
 xmlns:xodm="http://www.corel.com/coreldraw/odm/2003">
 <defs>
  <style type="text/css">
   <![CDATA[
    .fil1 {fill:url(#id0)}
    .fil0 {fill:url(#id1);fill-rule:nonzero}
   ]]>
  </style>
  <linearGradient id="id0" gradientUnits="userSpaceOnUse" x1="471.43" y1="914.37" x2="699.85" y2="1241.55">
   <stop offset="0" style="stop-opacity:1; stop-color:#F1790B"/>
   <stop offset="0.611765" style="stop-opacity:1; stop-color:#E64006"/>
   <stop offset="1" style="stop-opacity:1; stop-color:#FF2F2B"/>
  </linearGradient>
  <linearGradient id="id1" gradientUnits="userSpaceOnUse" xlink:href="#id0" x1="2740.96" y1="522.64" x2="2946.26" y2="1225.16">
  </linearGradient>
 </defs>
 <g id="Camada_x0020_1">
  <metadata id="CorelCorpID_0Corel-Layer"/>
  <g id="_1738668861024">
   <path class="fil0" d="M1686.41 762.71c-73.85,0 -143.5,0 -217.35,0 -6.3,0.45 -10.97,-6.51 -6.76,-12.63 74.59,-109.75 149.39,-219.71 223.99,-329.46 2.4,-3.99 2.92,-5.86 2.85,-11.7 0,-26.01 0,-51.79 0,-77.83 0,-6.63 -5.6,-8.65 -8.65,-8.65 -105.53,0 -211.05,0 -316.58,0 -2.61,0 -8.36,2.35 -8.36,8.65 0,26.57 0,49.26 0,75.83 0,6.97 6.24,8.65 8.65,8.65 64.26,0 133.18,0 197.16,0 4.48,0.07 9.46,3.68 6.33,8 -76.74,112.76 -151.49,222.51 -228.24,335.3 -2.11,3.12 -2.43,4.37 -2.53,6.53 0,27.61 0,54.18 0,81.79 0,5.27 4.6,8.65 8.65,8.65 113.61,0 227.23,0 340.84,0 4.22,0 8.65,-3.47 8.65,-8.65 0,-25.28 0,-50.55 0,-75.83 0,-5.51 -5.17,-8.65 -8.65,-8.65zm1824.96 -119.37c0,70.27 -52.49,115.15 -117.69,115.15 -63.5,0 -115.14,-44.88 -115.14,-115.15 0,-71.12 51.64,-115.99 115.14,-115.99 65.2,0 117.69,44.87 117.69,115.99zm-11.11 -170.27c-33.06,-28.09 -74.31,-43.09 -117.58,-43.09 -113.46,0 -203.2,88.9 -203.2,213.36 0,123.61 89.74,212.51 203.2,212.51 45.04,0 86.3,-18.93 122.44,-47.29 4.46,-3.5 8.67,2.76 9.05,5.27 1.2,7.93 2.55,15.83 3.82,23.75 1.35,8.38 4.94,11.17 9.27,11.5 25.78,0 51.57,0 77.35,0 6.43,0 8.36,-5.94 8.36,-8.36 0,-132.72 0,-265.43 0,-398.15 0,-2.52 -2.09,-8.36 -8.36,-8.36 -28.29,0 -56.59,0 -84.88,0 -6.3,0 -8.36,5.41 -8.36,8.71 0,7.03 0,14.06 0,21.09 0,10.25 -6.16,13.26 -11.11,9.06zm810.52 74.06c0,49.85 0,99.69 0,149.54 0,102.44 51.64,159.17 144.78,159.17 7.05,0 14.11,0 21.16,0 7.74,0 9.32,-5.84 9.32,-8.48 0,-26.66 0,-53.32 0,-79.98 0,-2.72 -0.86,-8.91 -10.49,-8.91 -2.15,0 -4.3,0 -6.45,0 -41.48,0 -56.72,-16.93 -56.72,-61.8 0,-49.3 0,-99.7 0,-149 0,-7.99 5.19,-9.33 10.41,-9.33 17.47,0 32.09,0 49.56,0 5.63,0 9.45,-2.77 9.45,-10.73 0,-25.81 0,-50.68 0,-76.79 0,-3.51 -1.45,-9.85 -8.92,-9.85 -17.01,0 -34.01,0 -51.02,0 -2.41,0 -9.48,-0.91 -9.48,-9.11 0,-24.38 0,-48.76 0,-73.14 0,-3.65 -2.56,-8.34 -9.61,-8.34 -25.14,0 -50.28,0 -75.43,0 -6.19,0 -8.52,4.33 -8.9,8.51 -2.24,24.6 -4.64,49.2 -6.89,73.79 -0.53,5.77 -5.21,8.29 -7.42,8.29 -3.44,0 -6.88,0 -10.32,0 -5.18,0 -8.43,4.29 -8.43,8.04 0,26.96 0,53.9 0,80.86 0,4.36 2.51,8.47 9.44,8.47 1.93,0 3.85,0 5.78,0 8.2,0 10.18,4.57 10.18,8.79zm-252.81 179.97c28.5,40.67 57.09,81.31 85.5,122.03 4.59,6.58 5.88,6.71 11.85,6.71 29.29,0 58.57,0 87.85,0 7.95,0 12.41,-4.99 6.27,-13.72 -46.85,-66.61 -93.52,-133.35 -140.46,-199.89 -2.37,-3.36 -3.45,-6.43 1.09,-12.67 43.32,-59.54 86.68,-119.1 129.94,-178.67 2.92,-4.01 -0.48,-9.92 -7.54,-9.92 -31.17,0 -58.28,0 -89.47,0 -2.32,0 -4.84,0.95 -8.4,6.05 -37.52,53.47 -75.05,106.97 -112.57,160.43 -15.21,21.67 -18.64,10.01 -18.64,-1.08 0,-97.03 0,-190.5 0,-288.27 0,-2.83 -2.08,-8.15 -8.36,-8.36 -29.9,0 -55.02,0 -84.88,0 -6.69,0.1 -8.36,6.05 -8.36,8.36 0,177.26 0,351.15 0,528.29 0,6.23 3.94,9.45 8.33,9.45 27.47,0 56.34,0 83.5,0 9.65,0 9.77,-6.95 9.77,-12.33 0,-21.34 0,-42.68 0,-64.02 0,-2.45 0.76,-3.45 2.82,-6.26 11.52,-15.8 23.06,-31.62 34.59,-47.39 5.64,-7.7 11.27,-7.16 17.17,1.26zm-192.74 -290.09c-41.73,2.16 -79.46,17.55 -108.29,43.31 -11.66,10.75 -17.03,9.2 -18.56,0.13 -1.46,-9.62 -2.92,-19.23 -4.38,-28.85 -1.33,-8.88 -5.31,-10.63 -8.84,-10.63 -25.84,0 -51.69,0 -77.53,0 -6.25,0 -8.42,5.56 -8.36,8.36 0,132.72 0,265.43 0,398.15 0,2.72 2.24,8.36 8.36,8.36 28.29,0 56.59,0 84.88,0 7.28,0 8.36,-6.96 8.36,-8.36 0,-83.53 0,-167.07 0,-250.6 0,-6.45 0.79,-6 9.06,-14.97 14.89,-16.34 48.58,-44.42 104.39,-44.42 3.12,0 9.69,0 12.81,0 2.96,0 8.12,-2.21 8.36,-8.36 0,-28.96 0,-54.84 0,-83.99 0.01,-1.56 -0.7,-8.63 -10.26,-8.13zm-913.55 410.45c28.79,-71.04 57.59,-142.09 86.38,-213.12 0.49,-1.21 0.97,-2.38 1.42,-3.51 1.93,-4.91 12.1,-3.59 12.1,0.06 0,1.77 0,3.79 0,5.68 0,70.3 0,140.61 0,210.91 0,5.61 4.95,8.36 8.36,8.36 28.29,0 56.59,0 84.88,0 5.22,0 8.36,-4.26 8.36,-8.36 0,-173.81 0,-342.87 0,-516.68 -0.16,-3.35 -2.37,-8.36 -8.36,-8.36 -30.58,0 -56.62,0 -86.75,0 -5.61,0 -7.69,2.97 -9.09,6.44 -45.4,112.06 -90.14,222.86 -135.48,334.96 -5.34,13.2 -10.67,26.4 -16.01,39.6 -5.46,-13.5 -10.92,-27 -16.38,-40.5 -45.14,-111.59 -90.28,-223.18 -135.42,-334.77 -1.94,-4.9 -6.6,-5.74 -8.26,-5.73 -29.09,0 -58.19,0 -87.28,0 -6.37,0 -8.36,5.91 -8.36,8.36 0,172.23 0,344.45 0,516.68 0,3.32 2.48,8.36 8.36,8.36 28.29,0 56.59,0 84.88,0 3.22,0.02 8.36,-2.85 8.36,-8.36 0,-63.99 0,-127.99 0,-191.98 0,-7.96 0,-16.27 0,-22.56 0.2,-7.11 11.65,-5.9 13.58,0.02 2.54,6.87 5.86,15.94 9.31,24.47 25.68,63.3 51.37,126.61 76.97,189.94 1.32,3.29 2.91,8.47 9.24,8.47 30.03,0 60.05,0 90.08,0 4.04,0 5.92,-0.51 9.11,-8.38zm-668.09 -197.36c0,-71.12 52.5,-115.99 117.69,-115.99 63.5,0 115.15,44.87 115.15,115.99 0,70.27 -51.65,115.15 -115.15,115.15 -65.19,0 -117.69,-44.88 -117.69,-115.15zm12.3 169.94c32.96,28.1 73.99,42.57 116.4,42.57 113.45,0 203.2,-88.9 203.2,-212.51 0,-124.46 -89.75,-213.36 -203.2,-213.36 -42.82,0 -82.87,14.39 -115.67,41.91 -5.03,4.22 -12.95,9.91 -16.13,-0.44 -2.83,-9.21 -3.17,-19 -4.76,-28.5 -1.24,-7.49 -5.89,-8.74 -8.66,-8.74 -25.85,0 -51.71,0 -77.56,0 -2.77,-0.01 -8.36,2.42 -8.36,8.36 0,183.52 0,367.03 0,550.55 0,5.53 4.53,8.36 8.36,8.36 28.29,0 56.59,0 84.88,0 2.47,0 8.36,-2.19 8.36,-8.36 0,-58.37 0,-116.76 0,-175.13 -0.18,-8.43 5.58,-11.15 13.14,-4.71zm-242.64 -169.94c0,70.27 -52.49,115.15 -117.69,115.15 -63.5,0 -115.14,-44.88 -115.14,-115.15 0,-71.12 51.64,-115.99 115.14,-115.99 65.2,0 117.69,44.87 117.69,115.99zm-11.11 -170.27c-33.06,-28.09 -74.31,-43.09 -117.58,-43.09 -113.46,0 -203.2,88.9 -203.2,213.36 0,123.61 89.74,212.51 203.2,212.51 45.04,0 86.3,-18.93 122.44,-47.29 4.46,-3.5 8.67,2.76 9.05,5.27 1.2,7.93 2.55,15.83 3.82,23.75 1.35,8.38 4.94,11.17 9.27,11.5 25.78,0 51.57,0 77.35,0 6.43,0 8.36,-5.94 8.36,-8.36 0,-132.72 0,-265.43 0,-398.15 0,-2.52 -2.09,-8.36 -8.36,-8.36 -28.29,0 -56.59,0 -84.88,0 -6.3,0 -8.36,5.41 -8.36,8.71 0,7.03 0,14.06 0,21.09 0,10.25 -6.16,13.26 -11.11,9.06z"/>
   <path class="fil1" d="M320.33 1053.18c0,-11.24 -0.83,-17.77 7.2,-27.57 19.97,-24.38 74.75,6.94 74.75,48.68 0,15.7 -9.35,29.8 -24.83,29.8 -18.07,0 -27.78,-4.68 -40.07,-17.05 -6.47,-6.51 -17.05,-21.81 -17.05,-33.86zm776.7 -376.83l-263.48 0c-10.62,0 -12.77,-8.69 -4.77,-19.32l0.01 -0.01c8.01,-10.64 23.25,-19.33 33.88,-19.33l263.48 0c10.63,0 12.77,8.69 4.76,19.33l0 0.01c-8.01,10.63 -23.25,19.32 -33.88,19.32zm58.71 -66.74l-348.58 0c-10.63,0 -10.93,-8.69 -0.67,-19.32l0.01 -0.01c10.27,-10.63 27.34,-19.32 37.97,-19.32l348.58 0c10.64,0 10.94,8.69 0.67,19.32l-0.01 0.01c-10.26,10.63 -27.34,19.32 -37.97,19.32zm101.71 -105.66c-76.71,0 -153.42,0 -230.12,0l-3.03 0 -88 0c-0.37,0 -0.76,0.02 -1.17,0.08l-4.7 0c9.69,-18.07 24.68,-48.21 65.58,-135.6 30.69,-65.58 61.39,-131.17 92.09,-196.75 10.44,-21.08 16.77,-52.2 16.77,-82.32 0,-54.2 -16.41,-84.31 -35.79,-84.31 -96.68,0 -193.35,0 -290.02,0 -26.76,-2.9 -34.76,13.39 -36.14,18.59 -8.33,29.43 -16.66,58.86 -24.99,88.28 -4.96,17.66 8.79,31.85 26.42,32.59 80.24,-1.16 160.48,-2.33 240.72,-3.49 -56.38,122.64 -112.76,245.3 -169.14,367.95 -0.4,0.87 -0.81,1.81 -1.22,2.76 -8.24,19.26 11.79,32.29 29.71,30.87l54.29 0c0.36,0.08 0.78,0.11 1.22,0.11l333.93 0c4.41,0 11.4,-3.6 15.53,-8.01l14.48 -15.43c10.43,-11.12 1.23,-15 -6.42,-15.32zm-1121.78 17.12l62.61 -19.07c8.56,-2.65 57.76,-18.17 65.92,-18.17 3.5,0 4.81,3.6 6.94,6.27l39.9 54.99 -33.99 12.85c-19.82,7.74 -80.97,32.68 -99.34,42.4 -3.34,-6.31 -7.55,-12.88 -10.81,-19.21l-31.23 -60.06zm190.99 -54.06c6.4,-0.53 16.09,-3.69 23.51,-5.31 12.55,-2.73 62.63,-14.91 71.38,-15.11l16.83 28.82c3.01,5.77 13.91,25.35 14.4,31.24 -22.52,5.25 -50.06,10.48 -71.93,16.96 -30.35,9.01 -21.78,12.42 -39.79,-24.15 -2.74,-5.55 -13.83,-28.01 -14.4,-32.45zm145.34 -30.03c4.12,-0.09 85.54,-12.93 103.3,-14.41 7.38,13.95 30.28,64.25 31.23,75.67 -6.09,0 -6.54,-1.2 -13.21,-1.2l-57.69 -0.04c-6.09,0.18 -6.64,1.24 -13.14,1.28 -10.92,0.08 -18.3,1.59 -27.67,2.37 -0.44,-5.36 -3.44,-10.87 -5.26,-16.36l-17.56 -47.31zm-374.77 -30.03c0,-8.73 0.19,-20.26 2.49,-27.53 4.54,-14.35 13.41,-28.25 24.95,-37.52l7.4 -5.82c9,6.03 17.04,15.27 24.92,23.13l68.77 75.37c-6.89,0.15 -21.83,4.86 -29.31,6.73 -10.13,2.52 -18.88,5.04 -28.35,7.69 -9.26,2.58 -19.16,5.73 -27.88,8.15 -33.1,9.19 -29.37,16.36 -38.18,-18.96 -2.36,-9.46 -4.81,-19.42 -4.81,-31.24zm123.72 -102.1c8.49,-4.07 80.17,-10.81 93.7,-10.81 1.09,4.1 17.46,22.36 20.57,26.27 9.96,12.5 56.13,72 58.7,83.04 -4.23,2.03 -85.93,11.32 -94.89,15.62 -26.22,-39.17 -43.15,-67.18 -73.45,-106.73l-4.63 -7.39zm164.57 -14.41l120.11 0c10.57,19.96 44.48,76.88 53.87,97.76 4.97,11.07 -12.9,2.56 -40.98,6.41l-32.1 1.54c-12.1,0.62 -21.15,1.19 -33.64,1.19l-31.95 -54.53c-3.11,-4.64 -5.34,-8.75 -8.54,-13.08 -3.32,-4.51 -5.71,-8.57 -8.76,-12.86l-18.01 -26.43zm-391.59 80.48c0,39.24 10.97,71.18 27.23,103.7l14.4 26.44c16.95,31.14 44.65,67.48 67.95,94.21l119.15 123.48c10.07,7.78 32.88,31.9 43.94,37.75 -3.33,-14.29 -49.19,-80.36 -52.85,-96.1 7.6,-11.36 80.85,-44.39 95.76,-50.78 11.56,-4.95 23.76,-8.61 35.17,-14.08 1.86,2.79 3.1,5.18 5.03,8.18 12.91,20.12 25.8,40.59 36.6,61.89l37.57 68.14c2.34,3.75 -0.2,2.12 3.68,3.53 -2.57,-5.35 -3.64,-13.01 -5.58,-19.65l-36.6 -114.74c-1.85,-5.55 -5.72,-12.54 -5.87,-19.36l73.27 -19.22c7.78,-1.96 17.07,-4.81 26.43,-4.81 3.21,13.8 16.08,40.6 21.18,55.7l17.06 50.2c1.44,4.49 0.68,4.73 3.8,7.01 0,-31.55 -3.07,-59.62 -7.27,-90.02 -0.68,-4.95 -1.52,-9.55 -2.33,-14.49 -0.79,-4.77 -2.3,-9.53 -2.41,-14.4 16.01,-3.73 36.75,-5.75 54.02,-7.24 18.38,-1.6 38.07,-4.77 57.69,-4.77 2.72,11.7 5.69,23.83 8.11,35.12 2.16,10.07 2.9,23.68 6.35,33.29 1.07,2.97 0.33,1.17 1.15,2.46 0,-12.02 0,-24.03 0,-36.04 0,-13.68 -1.2,-23.19 -1.2,-36.04l105.71 0c6.66,0 7.12,1.21 13.21,1.21l0 -2.41c-3.77,-0.87 -9.3,-3.82 -13.56,-5.66 -25,-10.76 -49.02,-19.86 -76.05,-26.05l-25.19 -4.84c-3.71,-0.75 -5.31,-1.58 -8.92,-1.88 -0.94,-11.28 -9.81,-49.06 -12.48,-60.8 -1.37,-5.98 -4.22,-15.52 -4.34,-20.88 17.86,0 39.46,-3.61 61.26,-3.61l74.47 -1.2c18.7,0 33.05,1.2 51.65,1.2l0 -1.2c-11.77,0 -33.44,-5.57 -46.64,-7.42l-97.56 -10.53c-4.37,-0.35 -8.39,0.21 -12.82,-0.4l-38.77 -2.07c-1.12,-13.46 -11.31,-36.92 -16.07,-51.2 -3.01,-9.03 -5.76,-16.22 -8.71,-24.91 -1.66,-4.88 -2.6,-7.86 -4.4,-12.43 -1.41,-3.58 -4.16,-10 -4.45,-13.56 11.41,0 24.53,-1.16 35.53,0.51l69.03 3.03c5.56,0.46 12.31,-0.05 18.01,0.02l157.3 7.25c-1.35,-0.86 0.68,-0.04 -2.46,-1.14 -1.05,-0.36 -3.11,-0.86 -3.79,-1.01 -3.51,-0.76 -4.76,-0.9 -8.06,-1.55 -5.02,-1 -11.32,-2.26 -16.01,-3.21 -98.58,-19.93 -196.93,-34.76 -297.25,-47.5 -21.95,-2.78 -82.82,-9.9 -104.84,-10.46l-36 -2.44c-24.8,-0.21 -48.31,-2.36 -74.52,-2.36 -42.48,0 -90.44,1.4 -129.94,7 -44.77,6.33 -83.83,14.93 -121.49,35.86 -10.67,5.93 -21.88,13.76 -30.57,22.28 -19.17,18.8 -32.71,43.95 -32.71,73zm958.45 381.76c6.04,3.2 13.6,6.77 18.84,10.96 39.84,31.84 53.18,101.17 53.18,152.95 0,107.45 -36.48,125.2 -32.68,143.1 13.33,62.84 -25.82,103.26 -78.41,104.01l-3.03 0c-12.11,-0.17 -24.88,-2.42 -37.85,-6.97 -40.01,-14.02 -75.23,-45.77 -91.26,-85.08 -13.59,-33.34 -13.34,-61.02 3.57,-92.97 -46.52,-10.84 -93.7,-18.41 -141.75,-23.4 -8.96,-0.93 -16.68,-0.63 -25.7,-1.62 -7.03,-0.77 -17.9,-0.62 -25.54,-1.78 -25.15,-3.8 -126.64,1 -158.8,5.31l-48.05 6.59c3.35,5 8.88,7.33 13.85,10.98 23.83,17.47 44,42.39 53.37,70.81 9.79,29.67 9.71,72.54 -15.35,95.49 -14.99,13.73 -32.37,20.83 -50.53,22.64l-19.3 0c-52.52,-4.98 -106.68,-49.06 -125.33,-102.57 -10.03,-28.77 -6.68,-58.95 7.42,-80.49 6.78,-10.36 14.65,-17.98 25.76,-23.91l17.36 -7.48c5.78,-2.43 10.42,-4.96 15.52,-8.06 18.19,-11.08 47.34,-22.49 70.3,-29.04 41.36,-11.81 102.69,-24.74 146.02,-26.59 20.13,-0.87 50.96,-3.82 70.76,-3.74 8.29,0.03 16.58,0.01 24.87,-0.03 8.82,-0.03 12.86,1.33 22.31,1.28 46.35,-0.25 109.92,7.83 154.74,19.11 25.47,6.41 50.51,13.58 74.81,23.28 6.07,2.42 11.11,5.03 17.21,7.63 11.31,4.83 22.39,10.98 32.16,17.52l27.8 20.62c-1.34,-5.76 -7.07,-14.7 -9.99,-19.81 -15.84,-27.68 -36.8,-51.32 -60.47,-72.4 -47.95,-42.72 -111.26,-62.22 -175.94,-71.17 -24.01,-3.32 -26.05,-1.8 -41.62,-3.08 -70.88,-5.85 -165.54,8.13 -224.72,20.03l-119.79 26.73c-4.69,1.05 -7.65,1.97 -11.77,3.13l-103.54 27.03c-4.98,1.18 -5.75,0.49 -9.29,-2.62 -2.93,-2.56 -4.54,-4.99 -6.22,-8.74 -18.36,-41.13 85.69,-78.14 112.15,-88.37 68.63,-26.53 164.91,-44.94 237.33,-54.49 29.62,-3.91 79.64,-9.74 107.15,-9.57 63.86,0.41 103.72,-0.22 166.78,5.84 13.22,1.75 41.01,7.62 50.53,7.83l93.14 21.11zm-96.86 296.78l0 -6.21c0,-24.46 33.37,-39.28 63.64,-9.01 5.85,5.85 7.72,7.87 11.87,15.45 13.29,24.28 5.68,54.4 -18.39,54.4 -17.6,0 -28.87,-5.25 -41.32,-18.28 -7.13,-7.48 -15.8,-22.42 -15.8,-36.35z"/>
  </g>
 </g>
</svg>
