<svg width="211" height="48" viewBox="0 0 211 48" fill="none" xmlns="http://www.w3.org/2000/svg">
<path id="Vector" d="M23.6255 30.7355C18.6935 30.7355 14.042 30.7355 9.10998 30.7355C8.68925 30.7655 8.37736 30.3007 8.65852 29.892C13.6399 22.5625 18.6354 15.2189 23.6175 7.88938C23.7777 7.62291 23.8125 7.49802 23.8078 7.10801C23.8078 5.37096 23.8078 3.64927 23.8078 1.91021C23.8078 1.46743 23.4338 1.33253 23.2301 1.33253C16.1824 1.33253 9.13536 1.33253 2.08765 1.33253C1.91335 1.33253 1.52934 1.48947 1.52934 1.91021C1.52934 3.68466 1.52934 5.19999 1.52934 6.97444C1.52934 7.43992 1.94607 7.55212 2.10702 7.55212C6.39855 7.55212 11.0013 7.55212 15.2741 7.55212C15.5733 7.55679 15.9059 7.79788 15.6969 8.08639C10.5719 15.6169 5.57978 22.9465 0.454113 30.479C0.313199 30.6874 0.291835 30.7709 0.285156 30.9151C0.285156 32.759 0.285156 34.5335 0.285156 36.3774C0.285156 36.7293 0.592356 36.9551 0.862831 36.9551C8.45015 36.9551 16.0381 36.9551 23.6255 36.9551C23.9073 36.9551 24.2031 36.7233 24.2031 36.3774C24.2031 34.6891 24.2031 33.0015 24.2031 31.3132C24.2031 30.9452 23.8579 30.7355 23.6255 30.7355ZM145.503 22.7635C145.503 27.4564 141.998 30.4537 137.644 30.4537C133.403 30.4537 129.954 27.4564 129.954 22.7635C129.954 18.0138 133.403 15.0172 137.644 15.0172C141.998 15.0172 145.503 18.0138 145.503 22.7635ZM144.761 11.3922C142.554 9.51623 139.799 8.51447 136.909 8.51447C129.332 8.51447 123.339 14.4516 123.339 22.7635C123.339 31.0187 129.332 36.9557 136.909 36.9557C139.917 36.9557 142.672 35.6915 145.086 33.7975C145.384 33.5638 145.665 33.9819 145.69 34.1495C145.771 34.6791 145.861 35.2067 145.946 35.7356C146.036 36.2952 146.275 36.4816 146.565 36.5036C148.286 36.5036 150.009 36.5036 151.73 36.5036C152.16 36.5036 152.289 36.1069 152.289 35.9453C152.289 27.0817 152.289 18.2188 152.289 9.35528C152.289 9.18699 152.149 8.79697 151.73 8.79697C149.841 8.79697 147.951 8.79697 146.062 8.79697C145.641 8.79697 145.503 9.15827 145.503 9.37866C145.503 9.84815 145.503 10.3176 145.503 10.7871C145.503 11.4717 145.092 11.6727 144.761 11.3922ZM198.891 16.3382C198.891 19.6674 198.891 22.9959 198.891 26.3251C198.891 33.1664 202.34 36.9551 208.56 36.9551C209.031 36.9551 209.502 36.9551 209.973 36.9551C210.49 36.9551 210.596 36.5651 210.596 36.3887C210.596 34.6083 210.596 32.8278 210.596 31.0474C210.596 30.8657 210.538 30.4523 209.895 30.4523C209.752 30.4523 209.608 30.4523 209.464 30.4523C206.694 30.4523 205.676 29.3217 205.676 26.3251C205.676 23.0326 205.676 19.6667 205.676 16.3743C205.676 15.8407 206.023 15.7512 206.372 15.7512C207.538 15.7512 208.515 15.7512 209.681 15.7512C210.057 15.7512 210.313 15.5662 210.313 15.0346C210.313 13.3109 210.313 11.65 210.313 9.90625C210.313 9.67184 210.216 9.24843 209.717 9.24843C208.581 9.24843 207.446 9.24843 206.31 9.24843C206.149 9.24843 205.676 9.18765 205.676 8.64003C205.676 7.01183 205.676 5.38364 205.676 3.75545C205.676 3.51169 205.505 3.19847 205.035 3.19847C203.356 3.19847 201.677 3.19847 199.997 3.19847C199.584 3.19847 199.428 3.48765 199.403 3.76681C199.253 5.40969 199.093 7.05257 198.943 8.69479C198.907 9.08013 198.595 9.24843 198.447 9.24843C198.217 9.24843 197.988 9.24843 197.758 9.24843C197.412 9.24843 197.195 9.53493 197.195 9.78537C197.195 11.5859 197.195 13.385 197.195 15.1855C197.195 15.4767 197.362 15.7512 197.825 15.7512C197.954 15.7512 198.082 15.7512 198.211 15.7512C198.759 15.7512 198.891 16.0564 198.891 16.3382ZM182.008 28.3573C183.911 31.0734 185.82 33.7875 187.718 36.507C188.024 36.9464 188.11 36.9551 188.509 36.9551C190.465 36.9551 192.42 36.9551 194.376 36.9551C194.907 36.9551 195.205 36.6218 194.795 36.0388C191.666 31.5903 188.549 27.1332 185.414 22.6894C185.256 22.465 185.184 22.2599 185.487 21.8432C188.38 17.8669 191.276 13.8892 194.165 9.91093C194.36 9.64312 194.133 9.24843 193.661 9.24843C191.58 9.24843 189.769 9.24843 187.686 9.24843C187.531 9.24843 187.363 9.31187 187.125 9.65247C184.619 13.2234 182.113 16.7963 179.607 20.3666C178.592 21.8138 178.362 21.0351 178.362 20.2945C178.362 13.8144 178.362 7.57215 178.362 1.04269C178.362 0.853691 178.224 0.4984 177.804 0.484375C175.807 0.484375 174.13 0.484375 172.136 0.484375C171.689 0.491053 171.577 0.888419 171.577 1.04269C171.577 12.8808 171.577 24.4939 171.577 36.324C171.577 36.74 171.84 36.9551 172.134 36.9551C173.968 36.9551 175.896 36.9551 177.71 36.9551C178.354 36.9551 178.362 36.4909 178.362 36.1316C178.362 34.7065 178.362 33.2813 178.362 31.8561C178.362 31.6925 178.413 31.6257 178.551 31.438C179.32 30.3829 180.091 29.3263 180.861 28.2732C181.237 27.7589 181.613 27.795 182.008 28.3573ZM169.136 8.98396C166.349 9.12822 163.829 10.156 161.904 11.8764C161.125 12.5943 160.766 12.4908 160.664 11.8851C160.567 11.2426 160.469 10.6008 160.372 9.95834C160.283 9.3653 160.017 9.24843 159.781 9.24843C158.055 9.24843 156.329 9.24843 154.603 9.24843C154.186 9.24843 154.041 9.61975 154.045 9.80674C154.045 18.6703 154.045 27.5332 154.045 36.3968C154.045 36.5784 154.195 36.9551 154.603 36.9551C156.493 36.9551 158.383 36.9551 160.272 36.9551C160.758 36.9551 160.83 36.4903 160.83 36.3968C160.83 30.8183 160.83 25.2392 160.83 19.6607C160.83 19.23 160.883 19.26 161.435 18.661C162.43 17.5697 164.68 15.6944 168.407 15.6944C168.615 15.6944 169.054 15.6944 169.262 15.6944C169.46 15.6944 169.805 15.5468 169.821 15.1361C169.821 13.202 169.821 11.4737 169.821 9.52692C169.821 9.42274 169.774 8.95057 169.136 8.98396ZM108.125 36.3954C110.048 31.6511 111.971 26.9061 113.894 22.1624C113.927 22.0816 113.959 22.0035 113.989 21.928C114.118 21.6001 114.797 21.6883 114.797 21.932C114.797 22.0502 114.797 22.1851 114.797 22.3114C114.797 27.0063 114.797 31.7018 114.797 36.3968C114.797 36.7714 115.127 36.9551 115.355 36.9551C117.244 36.9551 119.134 36.9551 121.024 36.9551C121.372 36.9551 121.582 36.6706 121.582 36.3968C121.582 24.789 121.582 13.4986 121.582 1.89084C121.571 1.66712 121.424 1.33253 121.024 1.33253C118.982 1.33253 117.242 1.33253 115.23 1.33253C114.856 1.33253 114.717 1.53088 114.623 1.76262C111.591 9.24642 108.603 16.6461 105.575 24.1326C105.219 25.0141 104.863 25.8957 104.506 26.7772C104.141 25.8756 103.777 24.974 103.412 24.0725C100.398 16.62 97.3829 9.16762 94.3683 1.7152C94.2388 1.38796 93.9275 1.33186 93.8167 1.33253C91.8739 1.33253 89.9305 1.33253 87.9878 1.33253C87.5624 1.33253 87.4295 1.72722 87.4295 1.89084C87.4295 13.393 87.4295 24.8946 87.4295 36.3968C87.4295 36.6185 87.5951 36.9551 87.9878 36.9551C89.8771 36.9551 91.7671 36.9551 93.6564 36.9551C93.8715 36.9564 94.2147 36.7647 94.2147 36.3968C94.2147 32.1233 94.2147 27.8491 94.2147 23.5756C94.2147 23.044 94.2147 22.489 94.2147 22.0689C94.2281 21.5941 94.9928 21.6749 95.1216 22.0703C95.2913 22.5291 95.513 23.1348 95.7434 23.7045C97.4584 27.9319 99.1741 32.16 100.884 36.3894C100.972 36.6091 101.078 36.9551 101.501 36.9551C103.506 36.9551 105.511 36.9551 107.517 36.9551C107.787 36.9551 107.912 36.921 108.125 36.3954ZM63.5075 23.2149C63.5075 18.4653 67.0136 15.4687 71.3673 15.4687C75.6081 15.4687 79.0574 18.4653 79.0574 23.2149C79.0574 27.9079 75.6081 30.9051 71.3673 30.9051C67.0136 30.9051 63.5075 27.9079 63.5075 23.2149ZM64.3289 34.5642C66.5301 36.4408 69.2703 37.4072 72.1026 37.4072C79.6792 37.4072 85.6731 31.4701 85.6731 23.2149C85.6731 14.903 79.6792 8.96593 72.1026 8.96593C69.2429 8.96593 66.5682 9.92695 64.3777 11.7648C64.0418 12.0467 63.5128 12.4267 63.3004 11.7355C63.1115 11.1204 63.0887 10.4666 62.9826 9.83212C62.8997 9.33191 62.5892 9.24843 62.4042 9.24843C60.6778 9.24843 58.9508 9.24843 57.2244 9.24843C57.0395 9.24776 56.6661 9.41004 56.6661 9.80674C56.6661 22.0629 56.6661 34.3184 56.6661 46.5746C56.6661 46.9439 56.9687 47.1329 57.2244 47.1329C59.1138 47.1329 61.0037 47.1329 62.8931 47.1329C63.058 47.1329 63.4514 46.9867 63.4514 46.5746C63.4514 42.6764 63.4514 38.7769 63.4514 34.8788C63.4394 34.3158 63.824 34.1341 64.3289 34.5642ZM48.1245 23.2149C48.1245 27.9079 44.619 30.9051 40.2647 30.9051C36.0239 30.9051 32.5752 27.9079 32.5752 23.2149C32.5752 18.4653 36.0239 15.4687 40.2647 15.4687C44.619 15.4687 48.1245 18.4653 48.1245 23.2149ZM47.3825 11.8437C45.1746 9.96769 42.4198 8.96593 39.5301 8.96593C31.9528 8.96593 25.9596 14.903 25.9596 23.2149C25.9596 31.4701 31.9528 37.4072 39.5301 37.4072C42.538 37.4072 45.2935 36.143 47.7071 34.249C48.0049 34.0152 48.2861 34.4333 48.3115 34.6009C48.3916 35.1305 48.4818 35.6581 48.5666 36.1871C48.6567 36.7467 48.8965 36.933 49.1857 36.9551C50.9074 36.9551 52.6297 36.9551 54.3514 36.9551C54.7808 36.9551 54.9097 36.5584 54.9097 36.3968C54.9097 27.5332 54.9097 18.6703 54.9097 9.80674C54.9097 9.63845 54.7701 9.24843 54.3514 9.24843C52.4621 9.24843 50.5721 9.24843 48.6828 9.24843C48.2621 9.24843 48.1245 9.60973 48.1245 9.83012C48.1245 10.2996 48.1245 10.7691 48.1245 11.2386C48.1245 11.9231 47.7131 12.1241 47.3825 11.8437Z" fill="url(#paint0_linear_1712_2140)"/>
<defs>
<linearGradient id="paint0_linear_1712_2140" x1="49.558" y1="27.7051" x2="63.2682" y2="74.6225" gradientUnits="userSpaceOnUse">
<stop stop-color="#F1790B"/>
<stop offset="0.611765" stop-color="#E64006"/>
<stop offset="1" stop-color="#FF2F2B"/>
</linearGradient>
</defs>
</svg>
