<svg width="55" height="50" viewBox="0 0 55 50" fill="none" xmlns="http://www.w3.org/2000/svg">
<g id="O&#204;&#136;cone Degrad&#203;&#134; 1" clip-path="url(#clip0_1347_196)">
<g id="Camada_x0020_1">
<path id="Vector" fill-rule="evenodd" clip-rule="evenodd" d="M14.0666 45.4129C14.0666 44.9281 14.0306 44.6464 14.377 44.2235C15.2385 43.1716 17.6021 44.5229 17.6021 46.3236C17.6021 47.0009 17.1987 47.6093 16.5306 47.6093C15.7509 47.6093 15.3325 47.4073 14.8022 46.8737C14.523 46.5928 14.0666 45.9328 14.0666 45.4129ZM47.5738 29.156H36.2075C35.7489 29.156 35.6561 28.7809 36.0015 28.3223C36.3469 27.8637 37.0047 27.4885 37.4634 27.4885H48.8297C49.2883 27.4885 49.3808 27.8637 49.0354 28.3223C48.69 28.7809 48.0324 29.156 47.5738 29.156ZM50.1063 26.2769H35.0688C34.6105 26.2769 34.5975 25.9018 35.0401 25.4432C35.483 24.9845 36.2202 24.6094 36.6786 24.6094H51.7161C52.1749 24.6094 52.1877 24.9845 51.7451 25.4432C51.3022 25.9018 50.5652 26.2769 50.1063 26.2769ZM54.4945 21.7188C51.1852 21.7188 47.876 21.7188 44.567 21.7188H44.4363H40.6399C40.6239 21.7188 40.6069 21.7198 40.5894 21.722L40.3865 21.7223C40.8046 20.9428 41.4512 19.6424 43.2156 15.8723C44.54 13.0431 45.8643 10.2137 47.1887 7.38457C47.6388 6.47485 47.9122 5.1325 47.9122 3.83314C47.9122 1.49484 47.2039 0.195732 46.3682 0.195732C42.1974 0.195732 38.0269 0.195732 33.8564 0.195732C32.702 0.0705191 32.3566 0.773308 32.2974 0.997991C31.938 2.26736 31.5784 3.53723 31.2192 4.8061C31.0053 5.56812 31.5986 6.18044 32.3591 6.21218C35.8206 6.16219 39.2823 6.11171 42.744 6.06147C40.3118 11.3526 37.8792 16.644 35.4472 21.9352C35.4297 21.9729 35.412 22.0132 35.3945 22.0544C35.0388 22.8854 35.9028 23.4473 36.6761 23.3863H39.0184C39.0339 23.3895 39.0516 23.391 39.0709 23.391H53.4768C53.667 23.391 53.9684 23.2356 54.1469 23.0454L54.7714 22.3796C55.2215 21.8997 54.8244 21.7325 54.4945 21.7188ZM6.10002 22.4571L8.80121 21.6346C9.1706 21.5201 11.2932 20.8508 11.6449 20.8508C11.7958 20.8508 11.8525 21.006 11.9443 21.1212L13.666 23.4935L12.1994 24.0481C11.3442 24.3817 8.70648 25.4579 7.91397 25.8773C7.76952 25.6046 7.58807 25.3214 7.44711 25.0483L6.10002 22.4571ZM14.3395 20.1253C14.6155 20.1023 15.0336 19.9658 15.354 19.8961C15.8953 19.7781 18.0557 19.2528 18.4333 19.2443L19.1593 20.4874C19.2891 20.7363 19.7594 21.5808 19.7807 21.8352C18.809 22.0617 17.6208 22.2871 16.6776 22.567C15.368 22.9554 15.7376 23.1026 14.9606 21.5251C14.8426 21.2857 14.364 20.3164 14.3395 20.1253ZM20.6097 18.8299C20.7874 18.8256 24.2996 18.2718 25.0661 18.2078C25.3845 18.8096 26.3724 20.9795 26.4134 21.4726C26.1507 21.4726 26.1313 21.4206 25.8433 21.4206L23.3546 21.4189C23.0922 21.4269 23.0682 21.4723 22.7878 21.4741C22.3167 21.4776 21.9985 21.5426 21.5941 21.5763C21.5751 21.3451 21.4457 21.1075 21.3672 20.8705L20.6097 18.8299ZM4.44201 17.534C4.44201 17.1574 4.45026 16.6603 4.54923 16.3461C4.74492 15.7273 5.12756 15.1275 5.62566 14.7279L5.94481 14.4767C6.33295 14.7369 6.67984 15.1352 7.01999 15.4744L9.9866 18.7259C9.68969 18.7327 9.04513 18.9359 8.72223 19.0161C8.28511 19.1251 7.90772 19.2338 7.49935 19.348C7.09972 19.4595 6.67285 19.5952 6.29646 19.6996C4.86864 20.096 5.02934 20.4057 4.6492 18.8816C4.54723 18.4735 4.44201 18.0441 4.44201 17.534ZM9.77941 13.1296C10.1456 12.9539 13.2379 12.6632 13.8212 12.6632C13.8684 12.8399 14.5745 13.6277 14.7089 13.7964C15.1388 14.3355 17.1305 16.9027 17.2414 17.3788C17.0585 17.4665 13.5343 17.8669 13.1477 18.0524C12.0162 16.3629 11.286 15.1545 9.97885 13.4483L9.77941 13.1296ZM16.8788 12.5075H22.0605C22.5163 13.369 23.9797 15.8245 24.3843 16.7253C24.5987 17.2029 23.8282 16.8357 22.6163 17.0019L21.2317 17.0682C20.7099 17.0949 20.3195 17.1197 19.7807 17.1197L18.4023 14.7669C18.2681 14.5667 18.1716 14.3895 18.0339 14.2028C17.8905 14.0083 17.7873 13.8331 17.6558 13.6479L16.8788 12.5075ZM-0.0146484 15.9795C-0.0146484 17.6727 0.45846 19.0503 1.16 20.4534L1.78131 21.5941C2.51259 22.9374 3.70748 24.5052 4.71243 25.6583L9.85314 30.9855C10.2873 31.3209 11.2717 32.3616 11.7486 32.6138C11.6049 31.9974 9.62646 29.1468 9.46851 28.4682C9.79666 27.9781 12.9565 26.5531 13.5998 26.2774C14.0984 26.0637 14.6247 25.906 15.1168 25.6698C15.1973 25.7903 15.2508 25.8933 15.334 26.0227C15.8911 26.8907 16.4469 27.774 16.913 28.6929L18.5338 31.6323C18.6348 31.7943 18.525 31.724 18.6925 31.7845C18.5818 31.5541 18.5353 31.2234 18.4516 30.9373L16.8725 25.987C16.7928 25.7476 16.6261 25.4459 16.6196 25.1517L19.7807 24.3225C20.1163 24.238 20.5169 24.1153 20.9206 24.1153C21.0593 24.7104 21.6146 25.8665 21.8343 26.5181L22.5706 28.6837C22.6323 28.8774 22.5996 28.8879 22.7343 28.9863C22.7343 27.6253 22.6016 26.4144 22.4206 25.1025C22.3911 24.8891 22.3554 24.6906 22.3202 24.4777C22.2862 24.2718 22.2209 24.0663 22.2162 23.8564C22.907 23.6952 23.8015 23.6085 24.5465 23.5437C25.3397 23.475 26.1887 23.338 27.0352 23.338C27.1529 23.8429 27.2812 24.3662 27.3854 24.8533C27.4784 25.2877 27.5103 25.875 27.6593 26.2897C27.7053 26.4176 27.6738 26.3399 27.709 26.3954C27.709 25.8773 27.709 25.3589 27.709 24.8408C27.709 24.2508 27.6573 23.8401 27.6573 23.2861H32.2172C32.5048 23.2861 32.5246 23.338 32.7873 23.338V23.2343C32.6246 23.1966 32.3861 23.0694 32.2024 22.9901C31.124 22.5258 30.0878 22.1334 28.9214 21.8665L27.8347 21.6575C27.6745 21.6251 27.6056 21.5891 27.4499 21.5763C27.4094 21.0897 27.0267 19.46 26.9115 18.9536C26.8525 18.6957 26.7296 18.2838 26.7243 18.0524C27.4948 18.0524 28.4268 17.8969 29.367 17.8969L32.5801 17.8452C33.3868 17.8452 34.0056 17.8969 34.8082 17.8969V17.8452C34.3003 17.8452 33.3656 17.6048 32.7963 17.5253L28.5873 17.0707C28.3988 17.0554 28.2254 17.0799 28.0339 17.0537L26.3617 16.9642C26.3132 16.3834 25.8738 15.3714 25.6684 14.7556C25.5384 14.366 25.4197 14.0556 25.2925 13.6807C25.2208 13.4702 25.1803 13.3418 25.1028 13.1446C25.0421 12.9901 24.9234 12.713 24.9109 12.5595C25.403 12.5595 25.9691 12.5095 26.4434 12.5815L29.4218 12.7122C29.6614 12.732 29.9524 12.71 30.1983 12.713L36.9847 13.0259C36.9263 12.9889 37.014 13.0239 36.8783 12.9769C36.8333 12.9612 36.7441 12.9394 36.7148 12.9332C36.5634 12.9004 36.5094 12.8944 36.3672 12.8662C36.1505 12.8229 35.8791 12.7687 35.6764 12.7277C31.4237 11.8677 27.1809 11.2284 22.853 10.6788C21.9063 10.5586 19.2801 10.2515 18.3301 10.2272L16.7768 10.1223C15.7071 10.1128 14.6927 10.0203 13.5623 10.0203C11.7296 10.0203 9.66045 10.0808 7.95646 10.3219C6.02504 10.5954 4.3398 10.966 2.71528 11.8692C2.25517 12.1252 1.77132 12.4628 1.39643 12.8304C0.569676 13.6414 -0.0146484 14.7266 -0.0146484 15.9795ZM41.3334 32.4491C41.5941 32.587 41.9203 32.7415 42.1462 32.9219C43.8652 34.2957 44.4405 37.2866 44.4405 39.5204C44.4405 44.1558 42.8667 44.9216 43.0304 45.6936C43.606 48.4045 41.9168 50.1482 39.6479 50.1807H39.5175C38.9949 50.1732 38.4438 50.0763 37.8842 49.8801C36.1582 49.2753 34.6392 47.9057 33.9477 46.2097C33.3611 44.7714 33.3721 43.5775 34.1016 42.1986C32.0945 41.7313 30.0591 41.4044 27.9862 41.1894C27.5996 41.1494 27.2667 41.1622 26.8775 41.1195C26.5744 41.0862 26.1055 41.0927 25.7756 41.043C24.6907 40.8788 20.3125 41.086 18.9249 41.2717L16.852 41.5561C16.9965 41.7718 17.2352 41.8722 17.4496 42.0297C18.4776 42.7832 19.3475 43.8584 19.7522 45.0843C20.1745 46.3646 20.171 48.2141 19.0896 49.2043C18.4433 49.7961 17.6933 50.1028 16.9098 50.1807H16.0773C13.8115 49.966 11.4752 48.0641 10.6701 45.7556C10.2375 44.5147 10.3825 43.2126 10.9905 42.2834C11.283 41.8367 11.6226 41.5078 12.1017 41.2519L12.8507 40.9293C13.1004 40.8245 13.3006 40.7153 13.5205 40.5814C14.3051 40.1035 15.5627 39.6114 16.5531 39.3285C18.3373 38.8191 20.9833 38.2616 22.8522 38.1813C23.7207 38.1441 25.0508 38.0169 25.9051 38.0201C26.263 38.0214 26.6204 38.0204 26.978 38.0191C27.3586 38.0176 27.5326 38.0764 27.9407 38.0741C29.9401 38.0634 32.6825 38.412 34.6162 38.8984C35.7151 39.175 36.7953 39.4847 37.8437 39.9028C38.1052 40.0073 38.3228 40.1198 38.586 40.2322C39.0736 40.4404 39.5517 40.7058 39.9731 40.9877L41.1727 41.8775C41.115 41.629 40.8676 41.2432 40.7414 41.023C40.0583 39.8286 39.1541 38.8089 38.1332 37.8994C36.0643 36.0565 33.3331 35.2152 30.5429 34.8293C29.507 34.6859 29.4188 34.7516 28.7475 34.6961C25.6896 34.444 21.6059 35.0468 19.0526 35.5604L13.8847 36.7135C13.6825 36.7588 13.5548 36.7985 13.3768 36.8485L8.91017 38.0149C8.69549 38.0656 8.66225 38.0356 8.50929 37.9017C8.38308 37.7912 8.3136 37.6865 8.24112 37.5243C7.44911 35.7503 11.9378 34.1535 13.0794 33.7122C16.04 32.5675 20.1938 31.7735 23.3179 31.3616C24.5957 31.1929 26.7536 30.9413 27.9407 30.9488C30.6956 30.9662 32.4151 30.9393 35.1353 31.2007C35.7059 31.2759 36.9048 31.5293 37.3156 31.5383L41.3334 32.4491ZM37.1549 45.2522V44.9845C37.1549 43.9294 38.5945 43.2898 39.9006 44.5959C40.1528 44.8481 40.2333 44.9353 40.4125 45.2625C40.986 46.3094 40.6574 47.6093 39.6192 47.6093C38.8602 47.6093 38.3736 47.3828 37.8367 46.8205C37.5288 46.4981 37.1549 45.8535 37.1549 45.2522Z" fill="url(#paint0_linear_1347_196)"/>
</g>
</g>
<defs>
<linearGradient id="paint0_linear_1347_196" x1="12.8682" y1="29.3572" x2="39.7202" y2="51.7723" gradientUnits="userSpaceOnUse">
<stop stop-color="#F1790B"/>
<stop offset="0.611765" stop-color="#E64006"/>
<stop offset="1" stop-color="#FF2F2B"/>
</linearGradient>
<clipPath id="clip0_1347_196">
<rect width="54.988" height="50" fill="white"/>
</clipPath>
</defs>
</svg>
