<svg width="24" height="24" viewBox="0 0 24 24" fill="none" xmlns="http://www.w3.org/2000/svg">
<g id="visa" clip-path="url(#clip0_485_2585)">
<path id="Vector" d="M8.7998 15.4477L10.0189 8.59058H11.9236L10.7427 15.4477H8.7998Z" fill="#3C58BF"/>
<path id="Vector_2" d="M8.7998 15.4477L10.3617 8.59058H11.9236L10.7427 15.4477H8.7998Z" fill="#293688"/>
<path id="Vector_3" d="M17.6381 8.66658C17.2572 8.5142 16.6477 8.36182 15.8858 8.36182C13.981 8.36182 12.6096 9.3142 12.6096 10.6856C12.6096 11.7142 13.562 12.2475 14.3239 12.5904C15.0858 12.9332 15.3143 13.1618 15.3143 13.4666C15.3143 13.9237 14.7048 14.1523 14.1715 14.1523C13.4096 14.1523 12.9905 14.038 12.3429 13.7713L12.0762 13.6571L11.8096 15.219C12.2667 15.4094 13.1048 15.5999 13.981 15.5999C16 15.5999 17.3334 14.6475 17.3334 13.1999C17.3334 12.3999 16.8381 11.7904 15.6953 11.2951C15.0096 10.9523 14.5905 10.7618 14.5905 10.419C14.5905 10.1142 14.9334 9.80944 15.6953 9.80944C16.3429 9.80944 16.8 9.92372 17.1429 10.0761L17.3334 10.1523L17.6381 8.66658Z" fill="#3C58BF"/>
<path id="Vector_4" d="M17.6381 8.66658C17.2572 8.5142 16.6477 8.36182 15.8858 8.36182C13.981 8.36182 12.9524 9.3142 12.9524 10.6856C12.9524 11.7142 13.562 12.2475 14.3239 12.5904C15.0858 12.9332 15.3143 13.1618 15.3143 13.4666C15.3143 13.9237 14.7048 14.1523 14.1715 14.1523C13.4096 14.1523 12.9905 14.038 12.3429 13.7713L12.0762 13.6571L11.8096 15.219C12.2667 15.4094 13.1048 15.5999 13.981 15.5999C16 15.5999 17.3334 14.6475 17.3334 13.1999C17.3334 12.3999 16.8381 11.7904 15.6953 11.2951C15.0096 10.9523 14.5905 10.7618 14.5905 10.419C14.5905 10.1142 14.9334 9.80944 15.6953 9.80944C16.3429 9.80944 16.8 9.92372 17.1429 10.0761L17.3334 10.1523L17.6381 8.66658Z" fill="#293688"/>
<path id="Vector_5" d="M20.914 8.59058C20.4569 8.59058 20.114 8.62867 19.9235 9.08581L17.0664 15.4477H19.1235L19.5045 14.3049H21.9426L22.1712 15.4477H23.9997L22.3997 8.59058H20.914ZM20.0378 13.162C20.1521 12.8191 20.7997 11.143 20.7997 11.143C20.7997 11.143 20.9521 10.7239 21.0664 10.4572L21.1807 11.1049C21.1807 11.1049 21.5616 12.8191 21.6378 13.2001H20.0378V13.162Z" fill="#3C58BF"/>
<path id="Vector_6" d="M21.3712 8.59058C20.914 8.59058 20.5712 8.62867 20.3807 9.08581L17.0664 15.4477H19.1235L19.5045 14.3049H21.9426L22.1712 15.4477H23.9997L22.3997 8.59058H21.3712ZM20.0378 13.162C20.1902 12.7811 20.7997 11.143 20.7997 11.143C20.7997 11.143 20.9521 10.7239 21.0664 10.4572L21.1807 11.1049C21.1807 11.1049 21.5616 12.8191 21.6378 13.2001H20.0378V13.162Z" fill="#293688"/>
<path id="Vector_7" d="M5.29464 13.3906L5.10417 12.4001C4.76131 11.2572 3.65655 10.0001 2.4375 9.39057L4.15179 15.4858H6.20893L9.29464 8.62866H7.2375L5.29464 13.3906Z" fill="#3C58BF"/>
<path id="Vector_8" d="M5.29464 13.3906L5.10417 12.4001C4.76131 11.2572 3.65655 10.0001 2.4375 9.39057L4.15179 15.4858H6.20893L9.29464 8.62866H7.61845L5.29464 13.3906Z" fill="#293688"/>
<path id="Vector_9" d="M0 8.59058L0.342857 8.66677C2.78095 9.2382 4.45714 10.6858 5.10476 12.4001L4.41905 9.162C4.30476 8.70486 3.9619 8.59058 3.54286 8.59058H0Z" fill="#FFBC00"/>
<path id="Vector_10" d="M0 8.59058C2.43809 9.162 4.45714 10.6477 5.10476 12.362L4.45714 9.65724C4.34286 9.2001 3.9619 8.93343 3.54286 8.93343L0 8.59058Z" fill="#F7981D"/>
<path id="Vector_11" d="M0 8.59058C2.43809 9.162 4.45714 10.6477 5.10476 12.362L4.64762 10.8763C4.53333 10.4191 4.38095 9.962 3.84762 9.77153L0 8.59058Z" fill="#ED7C00"/>
<g id="Group">
<path id="Vector_12" d="M7.20037 13.1618L5.90513 11.8666L5.29561 13.3142L5.14323 12.3618C4.80037 11.219 3.69561 9.96182 2.47656 9.35229L4.19085 15.4475H6.24799L7.20037 13.1618Z" fill="#051244"/>
<path id="Vector_13" d="M10.7436 15.4474L9.10554 13.7712L8.80078 15.4474H10.7436Z" fill="#051244"/>
<path id="Vector_14" d="M15.1239 13.0857C15.2762 13.2381 15.3524 13.3524 15.3143 13.5047C15.3143 13.9619 14.7048 14.1905 14.1715 14.1905C13.4096 14.1905 12.9905 14.0762 12.3429 13.8095L12.0762 13.6952L11.8096 15.2571C12.2667 15.4476 13.1048 15.6381 13.981 15.6381C15.2 15.6381 16.1905 15.2952 16.762 14.6857L15.1239 13.0857Z" fill="#051244"/>
<path id="Vector_15" d="M17.334 15.4475H19.1245L19.5054 14.3046H21.9435L22.1721 15.4475H24.0007L23.353 12.6666L21.0673 10.457L21.1816 11.0666C21.1816 11.0666 21.5626 12.7808 21.6387 13.1618H20.0387C20.1911 12.7808 20.8007 11.1427 20.8007 11.1427C20.8007 11.1427 20.953 10.7237 21.0673 10.457" fill="#051244"/>
</g>
</g>
<defs>
<clipPath id="clip0_485_2585">
<rect width="24" height="24" fill="white"/>
</clipPath>
</defs>
</svg>
